<svg version="1.1" id="Layer_1" xmlns="http://www.w3.org/2000/svg" xmlns:xlink="http://www.w3.org/1999/xlink" x="0px" y="0px"
	 width="100%" viewBox="0 0 500 500" enable-background="new 0 0 500 500" xml:space="preserve">
<path fill="#000000" opacity="1.000000" stroke="none" 
	d="
M336.000000,501.000000 
	C224.000031,501.000000 112.500053,501.000000 1.000060,501.000000 
	C1.000040,334.333405 1.000040,167.666794 1.000020,1.000149 
	C167.666565,1.000100 334.333130,1.000100 500.999756,1.000050 
	C500.999847,167.666519 500.999847,334.333038 500.999939,500.999786 
	C446.166656,501.000000 391.333344,501.000000 336.000000,501.000000 
M160.533234,112.008957 
	C160.243607,112.283630 159.953964,112.558304 159.664322,112.832962 
	C160.476654,112.872185 161.288986,112.911407 162.842422,113.006226 
	C166.850006,115.347801 165.963913,118.821693 164.512543,122.454681 
	C164.345444,122.438690 164.178360,122.422699 163.499634,121.930443 
	C158.408829,116.416885 153.318008,110.903320 148.153503,105.309952 
	C139.485641,111.680984 131.230484,117.325233 123.503937,123.618477 
	C119.995537,126.476051 116.812881,130.248352 114.750679,134.257980 
	C110.646759,142.237381 114.545807,151.117874 123.076286,153.976257 
	C126.138573,155.002380 129.616104,155.178375 132.891357,155.112076 
	C146.701065,154.832520 160.503952,154.225525 174.313354,153.918198 
	C182.558746,153.734711 190.811569,153.884567 199.271851,153.884567 
	C199.271851,194.687729 199.271851,235.612534 199.271851,276.959534 
	C197.278595,276.959534 195.477646,276.959473 193.676697,276.959564 
	C164.011337,276.960876 134.345886,276.922791 104.680672,276.988495 
	C96.199921,277.007294 88.624466,282.907471 87.011299,290.403168 
	C85.054703,299.494629 88.834068,308.400360 96.830338,311.683441 
	C100.393425,313.146393 104.603172,313.526184 108.523964,313.547119 
	C136.521942,313.696838 164.521072,313.627106 192.519852,313.627106 
	C194.263123,313.627106 196.006378,313.627075 197.842789,313.627075 
	C196.513565,324.975861 192.295212,334.092743 183.705185,340.996521 
	C187.390152,348.219879 190.905701,355.111145 194.379807,361.921143 
	C202.403625,361.921143 210.084778,361.921143 218.683075,361.921143 
	C214.516968,370.642365 210.922821,378.455902 207.070694,386.140137 
	C203.878677,392.507568 199.240250,397.247406 192.628601,400.607178 
	C180.599762,406.719666 169.005402,413.687225 156.087677,420.939117 
	C158.045990,421.085785 158.640915,421.169067 159.235855,421.169250 
	C177.568390,421.175385 195.912247,421.572327 214.230011,421.052032 
	C230.166443,420.599335 244.497223,414.452026 258.341980,406.682983 
	C256.214386,400.519775 254.223419,394.752319 252.150528,388.747589 
	C247.494492,389.228638 243.063522,389.686462 238.210052,390.187927 
	C243.097153,380.645874 248.350143,371.744385 252.233383,362.280792 
	C254.434937,356.915497 258.013519,355.510895 262.717163,355.063141 
	C274.612915,353.930725 286.527527,352.997009 298.850250,351.948303 
	C299.248810,353.143951 299.802155,354.679810 300.274353,356.240234 
	C304.268127,369.439209 308.233826,382.646667 312.235809,395.843140 
	C314.408539,403.007690 314.431671,402.998230 308.187805,406.976044 
	C301.178589,411.441467 294.172028,415.911072 285.913605,421.176270 
	C302.863220,421.176270 318.217010,420.464661 333.476562,421.359985 
	C351.746643,422.431885 366.204529,413.232056 381.901672,406.201263 
	C379.789856,399.781525 377.840210,393.854706 375.899353,387.954620 
	C370.331848,387.954620 365.170624,387.838623 360.017700,387.996033 
	C356.666748,388.098419 354.994904,386.804565 354.123108,383.481812 
	C352.100494,375.773163 349.702881,368.162872 347.454193,360.513611 
	C342.917664,345.082214 338.379059,329.651428 333.666870,313.627075 
	C335.809631,313.627075 337.435272,313.627045 339.060944,313.627045 
	C355.060242,313.627014 371.061066,313.745453 387.057709,313.539215 
	C390.804901,313.490936 394.836761,313.031738 398.217285,311.563538 
	C406.052155,308.160614 409.772675,299.432617 407.903168,290.619934 
	C406.302582,283.074921 398.744537,277.034180 390.364990,276.996735 
	C369.199677,276.902100 348.033417,276.911377 326.868256,277.018097 
	C323.963348,277.032745 322.426575,276.477997 321.702057,273.295807 
	C320.451630,267.803528 318.576721,262.453796 316.973663,257.041351 
	C312.233978,241.038284 307.499146,225.033783 302.586670,208.436157 
	C290.741608,219.365555 279.359924,229.816879 268.071960,240.368454 
	C267.050842,241.322983 266.500580,242.870163 265.956604,244.231979 
	C262.015747,254.098190 258.173370,264.003967 254.183105,273.849945 
	C253.647568,275.171387 252.458237,276.227844 251.571655,277.407013 
	C251.136414,277.171936 250.701172,276.936890 250.265945,276.701843 
	C251.215317,235.185272 252.164688,193.668732 253.116592,152.041534 
	C268.942535,151.327805 284.411530,150.630188 299.880493,149.932556 
	C295.647797,146.713943 293.427399,143.140701 294.472290,138.029999 
	C294.660370,138.047073 294.848419,138.064163 295.274048,138.691681 
	C300.075928,144.109772 304.877808,149.527863 309.709229,154.979309 
	C316.667206,150.894440 323.283905,147.082504 329.824738,143.144562 
	C334.222321,140.497009 338.787170,138.016190 342.781097,134.837479 
	C347.733856,130.895615 349.364655,125.329033 347.907135,119.142838 
	C346.470062,113.043449 342.273895,109.348816 336.344666,108.033485 
	C332.502777,107.181221 328.451355,106.860504 324.507935,106.946831 
	C300.561554,107.471062 276.619995,108.212173 252.675323,108.820534 
	C222.942657,109.575966 193.208344,110.265518 163.476028,111.033798 
	C162.667282,111.054703 161.873428,111.651924 160.533234,112.008957 
z"/>
<path fill="#FBFCFC" opacity="1.000000" stroke="none" 
	d="
M293.913422,138.123199 
	C293.427399,143.140701 295.647797,146.713943 299.880493,149.932556 
	C284.411530,150.630188 268.942535,151.327805 253.116592,152.041534 
	C252.164688,193.668732 251.215317,235.185272 250.265945,276.701843 
	C250.701172,276.936890 251.136414,277.171936 251.571655,277.407013 
	C252.458237,276.227844 253.647568,275.171387 254.183105,273.849945 
	C258.173370,264.003967 262.015747,254.098190 265.956604,244.231979 
	C266.500580,242.870163 267.050842,241.322983 268.071960,240.368454 
	C279.359924,229.816879 290.741608,219.365555 302.586670,208.436157 
	C307.499146,225.033783 312.233978,241.038284 316.973663,257.041351 
	C318.576721,262.453796 320.451630,267.803528 321.702057,273.295807 
	C322.426575,276.477997 323.963348,277.032745 326.868256,277.018097 
	C348.033417,276.911377 369.199677,276.902100 390.364990,276.996735 
	C398.744537,277.034180 406.302582,283.074921 407.903168,290.619934 
	C409.772675,299.432617 406.052155,308.160614 398.217285,311.563538 
	C394.836761,313.031738 390.804901,313.490936 387.057709,313.539215 
	C371.061066,313.745453 355.060242,313.627014 339.060944,313.627045 
	C337.435272,313.627045 335.809631,313.627075 333.666870,313.627075 
	C338.379059,329.651428 342.917664,345.082214 347.454193,360.513611 
	C349.702881,368.162872 352.100494,375.773163 354.123108,383.481812 
	C354.994904,386.804565 356.666748,388.098419 360.017700,387.996033 
	C365.170624,387.838623 370.331848,387.954620 375.899353,387.954620 
	C377.840210,393.854706 379.789856,399.781525 381.901672,406.201263 
	C366.204529,413.232056 351.746643,422.431885 333.476562,421.359985 
	C318.217010,420.464661 302.863220,421.176270 285.913605,421.176270 
	C294.172028,415.911072 301.178589,411.441467 308.187805,406.976044 
	C314.431671,402.998230 314.408539,403.007690 312.235809,395.843140 
	C308.233826,382.646667 304.268127,369.439209 300.274353,356.240234 
	C299.802155,354.679810 299.248810,353.143951 298.850250,351.948303 
	C286.527527,352.997009 274.612915,353.930725 262.717163,355.063141 
	C258.013519,355.510895 254.434937,356.915497 252.233383,362.280792 
	C248.350143,371.744385 243.097153,380.645874 238.210052,390.187927 
	C243.063522,389.686462 247.494492,389.228638 252.150528,388.747589 
	C254.223419,394.752319 256.214386,400.519775 258.341980,406.682983 
	C244.497223,414.452026 230.166443,420.599335 214.230011,421.052032 
	C195.912247,421.572327 177.568390,421.175385 159.235855,421.169250 
	C158.640915,421.169067 158.045990,421.085785 156.087677,420.939117 
	C169.005402,413.687225 180.599762,406.719666 192.628601,400.607178 
	C199.240250,397.247406 203.878677,392.507568 207.070694,386.140137 
	C210.922821,378.455902 214.516968,370.642365 218.683075,361.921143 
	C210.084778,361.921143 202.403625,361.921143 194.379807,361.921143 
	C190.905701,355.111145 187.390152,348.219879 183.705185,340.996521 
	C192.295212,334.092743 196.513565,324.975861 197.842789,313.627075 
	C196.006378,313.627075 194.263123,313.627106 192.519852,313.627106 
	C164.521072,313.627106 136.521942,313.696838 108.523964,313.547119 
	C104.603172,313.526184 100.393425,313.146393 96.830338,311.683441 
	C88.834068,308.400360 85.054703,299.494629 87.011299,290.403168 
	C88.624466,282.907471 96.199921,277.007294 104.680672,276.988495 
	C134.345886,276.922791 164.011337,276.960876 193.676697,276.959564 
	C195.477646,276.959473 197.278595,276.959534 199.271851,276.959534 
	C199.271851,235.612534 199.271851,194.687729 199.271851,153.884567 
	C190.811569,153.884567 182.558746,153.734711 174.313354,153.918198 
	C160.503952,154.225525 146.701065,154.832520 132.891357,155.112076 
	C129.616104,155.178375 126.138573,155.002380 123.076286,153.976257 
	C114.545807,151.117874 110.646759,142.237381 114.750679,134.257980 
	C116.812881,130.248352 119.995537,126.476051 123.503937,123.618477 
	C131.230484,117.325233 139.485641,111.680984 148.153503,105.309952 
	C153.318008,110.903320 158.408829,116.416885 163.425568,122.320679 
	C158.872696,122.919083 154.695190,122.551567 153.153336,116.743446 
	C144.956070,122.833740 136.956665,128.503479 129.336746,134.644150 
	C127.584450,136.056274 127.135109,139.085251 126.086143,141.370148 
	C128.225632,141.919540 130.379120,142.992752 132.502396,142.935944 
	C150.464371,142.455383 168.418381,141.681152 186.380005,141.182831 
	C194.642166,140.953613 202.915970,141.143799 211.908875,141.143799 
	C211.908875,186.570160 211.908875,231.591248 211.908875,276.702881 
	C220.902664,276.702881 229.163010,276.702881 237.888214,276.702881 
	C238.979813,231.117950 240.065277,185.788910 241.161545,140.008698 
	C259.093689,139.367752 276.503540,138.745468 293.913422,138.123199 
M294.618530,285.146942 
	C294.763702,285.386963 294.908875,285.626953 295.499481,286.469635 
	C295.586426,288.221710 295.673340,289.973755 294.891846,291.946136 
	C291.789886,291.946136 288.687927,291.946136 285.081604,291.946136 
	C285.280579,289.016754 285.439850,286.671753 285.623260,283.971436 
	C284.485687,284.126007 283.121338,284.311432 282.004883,284.463165 
	C282.004883,291.515625 282.004883,298.081055 282.004883,305.059448 
	C283.696350,304.835968 284.914185,304.675079 285.655701,304.577118 
	C285.655701,300.872192 285.655701,297.625122 285.655701,294.286926 
	C289.143799,294.286926 292.443115,294.286926 295.769104,295.129944 
	C295.769104,298.229218 295.769104,301.328491 295.769104,304.814331 
	C296.652832,304.727539 297.829193,304.612030 298.157349,304.579834 
	C298.157349,297.800598 298.157349,291.508484 298.623932,285.072754 
	C298.842010,284.860352 299.060089,284.647919 299.278168,284.435516 
	C298.835754,284.343689 298.393311,284.251892 297.294189,284.098724 
	C296.533875,284.406189 295.773560,284.713654 294.618530,285.146942 
M266.389679,287.331604 
	C263.234314,291.695404 263.568665,292.719757 267.843201,295.491608 
	C270.270691,297.065704 272.257721,299.319092 274.536163,301.349487 
	C276.987640,298.633301 276.802826,297.196564 272.424164,294.794708 
	C269.234222,293.044983 266.197754,291.385681 267.429962,286.952515 
	C267.710663,286.865540 267.991394,286.778564 268.272095,286.691589 
	C268.200836,286.566772 268.129547,286.441925 268.058258,286.317139 
	C267.706726,286.550446 267.355194,286.783783 266.389679,287.331604 
M195.121231,349.276550 
	C203.249908,349.515167 211.378448,349.877777 219.507355,349.886230 
	C221.104034,349.887878 223.509521,348.942749 224.154083,347.709167 
	C226.441483,343.331360 228.128342,338.639771 230.109222,333.908203 
	C228.481506,333.276520 227.251663,332.799255 226.603470,332.547699 
	C229.766830,326.444641 232.753723,320.682037 236.315948,313.809448 
	C227.339981,313.809448 220.050293,313.711700 212.769989,313.928375 
	C211.818588,313.956696 210.247482,315.496735 210.091110,316.510529 
	C208.154037,329.069641 202.861038,339.888641 193.506454,349.061310 
	C193.533981,349.269073 193.561508,349.476837 193.589020,349.684601 
	C193.796234,349.530243 194.003433,349.375885 195.121231,349.276550 
M333.250549,347.195190 
	C330.317719,337.142029 327.454498,327.067413 324.365234,317.062561 
	C323.973267,315.793121 322.429413,313.996155 321.365997,313.958832 
	C313.745239,313.691162 306.110748,313.815704 297.930084,313.815704 
	C299.479126,319.415833 300.861694,324.414185 302.472534,330.237701 
	C286.761139,330.237701 271.961548,330.237701 256.568634,330.237701 
	C258.865479,324.656738 260.965851,319.553131 263.336426,313.792999 
	C260.070221,313.792999 257.737732,313.997620 255.454361,313.749664 
	C250.939117,313.259399 248.531036,314.646881 246.625229,319.313293 
	C237.444855,341.791565 227.947449,364.149750 218.044525,386.319153 
	C213.835083,395.742737 208.473297,404.689178 197.953033,408.760681 
	C197.065704,409.104095 196.404633,410.032074 195.297897,410.980225 
	C218.065186,412.539093 239.609848,407.860962 249.874817,399.496094 
	C240.597549,399.496094 231.006729,399.496094 221.909256,399.496094 
	C230.687775,382.512482 239.274216,365.803070 248.013138,349.173767 
	C248.731964,347.805908 250.405289,346.165985 251.772430,346.029663 
	C269.582275,344.253906 287.416992,342.727173 305.971832,341.072998 
	C312.432281,362.444641 319.190826,384.802399 325.890442,406.965179 
	C324.189056,408.422699 322.887177,409.537994 321.275055,410.919067 
	C342.492401,412.749268 361.672913,408.081696 373.914246,398.396271 
	C367.162292,397.935394 360.256134,397.460876 353.349457,396.993805 
	C349.507111,396.733917 347.202087,395.164124 346.072510,391.039154 
	C342.122406,376.614044 337.747192,362.305328 333.250549,347.195190 
M311.523224,273.158447 
	C306.958954,257.814758 302.394684,242.471054 297.907471,227.386429 
	C278.918335,238.796692 269.137085,255.988190 264.545166,276.944275 
	C268.643799,276.944275 273.396851,278.202698 276.732819,276.568420 
	C279.700775,275.114441 281.098724,270.455658 283.442169,266.819427 
	C284.368835,269.602814 284.901611,272.070526 286.024811,274.231323 
	C286.637787,275.410553 288.223419,276.797699 289.417664,276.842926 
	C296.058258,277.094299 302.717163,277.069763 309.358643,276.829987 
	C310.203430,276.799500 310.982849,274.959534 311.523224,273.158447 
M207.223328,303.715668 
	C207.223328,300.905731 207.223328,298.095825 207.223328,295.387848 
	C209.261292,294.967438 210.864334,294.636749 212.467377,294.306061 
	C212.414108,294.011017 212.360855,293.715942 212.307587,293.420898 
	C210.602310,293.151947 208.897049,292.882965 207.210724,292.617004 
	C207.210724,290.355621 207.210724,288.446899 207.210724,286.480591 
	C209.776733,286.113373 212.036774,285.789978 214.296799,285.466553 
	C214.237076,285.201691 214.177353,284.936829 214.117630,284.671967 
	C210.646317,284.671967 207.175003,284.671967 204.029953,284.671967 
	C204.029953,291.691162 204.029953,298.201202 204.029953,304.685974 
	C207.001419,304.685974 209.415619,304.685974 211.829803,304.685974 
	C211.825684,304.462280 211.821564,304.238617 211.817444,304.014923 
	C210.536072,303.952209 209.254684,303.889465 207.223328,303.715668 
M237.426147,303.441467 
	C238.510452,304.092377 239.594742,304.743317 240.885742,305.518311 
	C240.600494,302.413025 239.731903,299.984100 240.395828,298.093231 
	C240.990417,296.399841 243.273071,295.299133 244.581070,294.140564 
	C243.813782,293.993774 242.411682,293.725555 241.538116,293.558411 
	C236.743057,284.942108 244.452957,286.429901 248.838531,285.219849 
	C248.569351,284.853180 248.300186,284.486542 248.031006,284.119873 
	C244.357605,284.293549 240.684189,284.467194 237.632996,284.611420 
	C237.632996,291.076630 237.632996,296.880798 237.426147,303.441467 
M257.026154,288.963928 
	C257.026154,287.390289 257.026154,285.816650 257.026154,283.728180 
	C255.443634,284.271606 254.151016,284.715515 253.539032,284.925659 
	C253.539032,291.898224 253.539032,298.212585 253.539032,305.110382 
	C255.256607,304.897369 256.692261,304.719299 257.019135,304.678741 
	C257.019135,299.196198 257.019135,294.524231 257.026154,288.963928 
M229.068314,301.060791 
	C231.939896,299.099609 231.632462,297.434113 228.275162,295.084229 
	C225.625732,293.229828 223.165695,291.104889 220.378403,288.908478 
	C219.001678,291.362518 219.928314,293.358612 222.691605,295.204498 
	C224.922195,296.694611 226.849289,298.639099 229.068314,301.060791 
M278.508057,313.609009 
	C276.837738,313.916809 275.167389,314.224579 273.497070,314.532379 
	C273.571320,314.849579 273.645569,315.166809 273.719818,315.484009 
	C278.439789,315.484009 283.159729,315.484009 287.879700,315.484009 
	C287.885315,314.858978 287.890961,314.233948 287.896576,313.608917 
	C285.095062,313.608917 282.293518,313.608917 278.508057,313.609009 
z"/>
<path fill="#5FE2E6" opacity="1.000000" stroke="none" 
	d="
M294.192871,138.076599 
	C276.503540,138.745468 259.093689,139.367752 241.161545,140.008698 
	C240.065277,185.788910 238.979813,231.117950 237.888214,276.702881 
	C229.163010,276.702881 220.902664,276.702881 211.908875,276.702881 
	C211.908875,231.591248 211.908875,186.570160 211.908875,141.143799 
	C202.915970,141.143799 194.642166,140.953613 186.380005,141.182831 
	C168.418381,141.681152 150.464371,142.455383 132.502396,142.935944 
	C130.379120,142.992752 128.225632,141.919540 126.086143,141.370148 
	C127.135109,139.085251 127.584450,136.056274 129.336746,134.644150 
	C136.956665,128.503479 144.956070,122.833740 153.153336,116.743446 
	C154.695190,122.551567 158.872696,122.919083 163.681366,122.558807 
	C164.178360,122.422699 164.345444,122.438690 165.114960,122.575745 
	C167.707809,122.762146 169.700806,122.928383 171.688232,122.877365 
	C193.772278,122.310432 215.853745,121.632591 237.939346,121.139084 
	C262.365540,120.593269 286.795776,120.230423 311.223236,119.737511 
	C317.693909,119.606941 324.166260,119.059540 330.625946,119.211189 
	C332.403534,119.252922 335.175751,120.825729 335.591339,122.250351 
	C335.981995,123.589554 334.295380,126.366417 332.778687,127.293427 
	C323.902802,132.718414 314.808380,137.785995 305.548004,143.112030 
	C306.081573,137.664444 304.925659,136.524307 299.934723,137.172119 
	C298.290344,137.385559 296.668610,137.773224 295.036499,138.081238 
	C294.848419,138.064163 294.660370,138.047073 294.192871,138.076599 
z"/>
<path fill="#FBFCFD" opacity="1.000000" stroke="none" 
	d="
M295.155273,138.386444 
	C296.668610,137.773224 298.290344,137.385559 299.934723,137.172119 
	C304.925659,136.524307 306.081573,137.664444 305.548004,143.112030 
	C314.808380,137.785995 323.902802,132.718414 332.778687,127.293427 
	C334.295380,126.366417 335.981995,123.589554 335.591339,122.250351 
	C335.175751,120.825729 332.403534,119.252922 330.625946,119.211189 
	C324.166260,119.059540 317.693909,119.606941 311.223236,119.737511 
	C286.795776,120.230423 262.365540,120.593269 237.939346,121.139084 
	C215.853745,121.632591 193.772278,122.310432 171.688232,122.877365 
	C169.700806,122.928383 167.707809,122.762146 165.356812,122.505646 
	C165.963913,118.821693 166.850006,115.347801 162.385498,112.737289 
	C161.643250,112.305702 161.357941,112.143051 161.072632,111.980400 
	C161.873428,111.651924 162.667282,111.054703 163.476028,111.033798 
	C193.208344,110.265518 222.942657,109.575966 252.675323,108.820534 
	C276.619995,108.212173 300.561554,107.471062 324.507935,106.946831 
	C328.451355,106.860504 332.502777,107.181221 336.344666,108.033485 
	C342.273895,109.348816 346.470062,113.043449 347.907135,119.142838 
	C349.364655,125.329033 347.733856,130.895615 342.781097,134.837479 
	C338.787170,138.016190 334.222321,140.497009 329.824738,143.144562 
	C323.283905,147.082504 316.667206,150.894440 309.709229,154.979309 
	C304.877808,149.527863 300.075928,144.109772 295.155273,138.386444 
z"/>
<path fill="#151616" opacity="1.000000" stroke="none" 
	d="
M160.802933,111.994675 
	C161.357941,112.143051 161.643250,112.305702 162.014938,112.709488 
	C161.288986,112.911407 160.476654,112.872185 159.664322,112.832970 
	C159.953964,112.558304 160.243607,112.283630 160.802933,111.994675 
z"/>
<path fill="#5FE2E6" opacity="1.000000" stroke="none" 
	d="
M333.392029,347.573792 
	C337.747192,362.305328 342.122406,376.614044 346.072510,391.039154 
	C347.202087,395.164124 349.507111,396.733917 353.349457,396.993805 
	C360.256134,397.460876 367.162292,397.935394 373.914246,398.396271 
	C361.672913,408.081696 342.492401,412.749268 321.275055,410.919067 
	C322.887177,409.537994 324.189056,408.422699 325.890442,406.965179 
	C319.190826,384.802399 312.432281,362.444641 305.971832,341.072998 
	C287.416992,342.727173 269.582275,344.253906 251.772430,346.029663 
	C250.405289,346.165985 248.731964,347.805908 248.013138,349.173767 
	C239.274216,365.803070 230.687775,382.512482 221.909256,399.496094 
	C231.006729,399.496094 240.597549,399.496094 249.874817,399.496094 
	C239.609848,407.860962 218.065186,412.539093 195.297897,410.980225 
	C196.404633,410.032074 197.065704,409.104095 197.953033,408.760681 
	C208.473297,404.689178 213.835083,395.742737 218.044525,386.319153 
	C227.947449,364.149750 237.444855,341.791565 246.625229,319.313293 
	C248.531036,314.646881 250.939117,313.259399 255.454361,313.749664 
	C257.737732,313.997620 260.070221,313.792999 263.336426,313.792999 
	C260.965851,319.553131 258.865479,324.656738 256.568634,330.237701 
	C271.961548,330.237701 286.761139,330.237701 302.472534,330.237701 
	C300.861694,324.414185 299.479126,319.415833 297.930084,313.815704 
	C306.110748,313.815704 313.745239,313.691162 321.365997,313.958832 
	C322.429413,313.996155 323.973267,315.793121 324.365234,317.062561 
	C327.454498,327.067413 330.317719,337.142029 333.392029,347.573792 
z"/>
<path fill="#5EE1E6" opacity="1.000000" stroke="none" 
	d="
M311.657898,273.558167 
	C310.982849,274.959534 310.203430,276.799500 309.358643,276.829987 
	C302.717163,277.069763 296.058258,277.094299 289.417664,276.842926 
	C288.223419,276.797699 286.637787,275.410553 286.024811,274.231323 
	C284.901611,272.070526 284.368835,269.602814 283.442169,266.819427 
	C281.098724,270.455658 279.700775,275.114441 276.732819,276.568420 
	C273.396851,278.202698 268.643799,276.944275 264.545166,276.944275 
	C269.137085,255.988190 278.918335,238.796692 297.907471,227.386429 
	C302.394684,242.471054 306.958954,257.814758 311.657898,273.558167 
z"/>
<path fill="#5EE1E6" opacity="1.000000" stroke="none" 
	d="
M193.882889,348.894135 
	C202.861038,339.888641 208.154037,329.069641 210.091110,316.510529 
	C210.247482,315.496735 211.818588,313.956696 212.769989,313.928375 
	C220.050293,313.711700 227.339981,313.809448 236.315948,313.809448 
	C232.753723,320.682037 229.766830,326.444641 226.603470,332.547699 
	C227.251663,332.799255 228.481506,333.276520 230.109222,333.908203 
	C228.128342,338.639771 226.441483,343.331360 224.154083,347.709167 
	C223.509521,348.942749 221.104034,349.887878 219.507355,349.886230 
	C211.378448,349.877777 203.249908,349.515167 194.585114,349.166046 
	C194.049011,349.055542 193.882889,348.894135 193.882889,348.894135 
z"/>
<path fill="#74E5EA" opacity="1.000000" stroke="none" 
	d="
M207.598328,303.771210 
	C209.254684,303.889465 210.536072,303.952209 211.817444,304.014923 
	C211.821564,304.238617 211.825684,304.462280 211.829803,304.685974 
	C209.415619,304.685974 207.001419,304.685974 204.029953,304.685974 
	C204.029953,298.201202 204.029953,291.691162 204.029953,284.671967 
	C207.175003,284.671967 210.646317,284.671967 214.117630,284.671967 
	C214.177353,284.936829 214.237076,285.201691 214.296799,285.466553 
	C212.036774,285.789978 209.776733,286.113373 207.210724,286.480591 
	C207.210724,288.446899 207.210724,290.355621 207.210724,292.617004 
	C208.897049,292.882965 210.602310,293.151947 212.307587,293.420898 
	C212.360855,293.715942 212.414108,294.011017 212.467377,294.306061 
	C210.864334,294.636749 209.261292,294.967438 207.223328,295.387848 
	C207.223328,298.095825 207.223328,300.905731 207.598328,303.771210 
z"/>
<path fill="#8AEAED" opacity="1.000000" stroke="none" 
	d="
M295.742462,294.286926 
	C292.443115,294.286926 289.143799,294.286926 285.655701,294.286926 
	C285.655701,297.625122 285.655701,300.872192 285.655701,304.577118 
	C284.914185,304.675079 283.696350,304.835968 282.004883,305.059448 
	C282.004883,298.081055 282.004883,291.515625 282.004883,284.463165 
	C283.121338,284.311432 284.485687,284.126007 285.623260,283.971436 
	C285.439850,286.671753 285.280579,289.016754 285.081604,291.946136 
	C288.687927,291.946136 291.789886,291.946136 295.394623,292.262054 
	C295.845734,293.147614 295.794098,293.717285 295.742462,294.286926 
z"/>
<path fill="#6BE4E8" opacity="1.000000" stroke="none" 
	d="
M237.529572,303.063232 
	C237.632996,296.880798 237.632996,291.076630 237.632996,284.611420 
	C240.684189,284.467194 244.357605,284.293549 248.031006,284.119873 
	C248.300186,284.486542 248.569351,284.853180 248.838531,285.219849 
	C244.452957,286.429901 236.743057,284.942108 241.538116,293.558411 
	C242.411682,293.725555 243.813782,293.993774 244.581070,294.140564 
	C243.273071,295.299133 240.990417,296.399841 240.395828,298.093231 
	C239.731903,299.984100 240.600494,302.413025 240.885742,305.518311 
	C239.594742,304.743317 238.510452,304.092377 237.529572,303.063232 
z"/>
<path fill="#7AE7EB" opacity="1.000000" stroke="none" 
	d="
M257.022644,289.408081 
	C257.019135,294.524231 257.019135,299.196198 257.019135,304.678741 
	C256.692261,304.719299 255.256607,304.897369 253.539032,305.110382 
	C253.539032,298.212585 253.539032,291.898224 253.539032,284.925659 
	C254.151016,284.715515 255.443634,284.271606 257.026154,283.728180 
	C257.026154,285.816650 257.026154,287.390289 257.022644,289.408081 
z"/>
<path fill="#73E5E9" opacity="1.000000" stroke="none" 
	d="
M266.961609,286.965240 
	C266.197754,291.385681 269.234222,293.044983 272.424164,294.794708 
	C276.802826,297.196564 276.987640,298.633301 274.536163,301.349487 
	C272.257721,299.319092 270.270691,297.065704 267.843201,295.491608 
	C263.568665,292.719757 263.234314,291.695404 266.688416,287.160126 
	C266.987122,286.988647 266.961609,286.965240 266.961609,286.965240 
z"/>
<path fill="#65E3E7" opacity="1.000000" stroke="none" 
	d="
M295.755798,294.708435 
	C295.794098,293.717285 295.845734,293.147614 295.828857,292.151917 
	C295.673340,289.973755 295.586426,288.221710 295.270782,285.957001 
	C295.042084,285.444366 295.013245,285.021118 295.013245,285.021118 
	C295.773560,284.713654 296.533875,284.406189 297.666046,284.394775 
	C298.077728,284.865997 298.117523,285.041168 298.157349,285.216339 
	C298.157349,291.508484 298.157349,297.800598 298.157349,304.579834 
	C297.829193,304.612030 296.652832,304.727539 295.769104,304.814331 
	C295.769104,301.328491 295.769104,298.229218 295.755798,294.708435 
z"/>
<path fill="#69E3E8" opacity="1.000000" stroke="none" 
	d="
M228.989685,300.721375 
	C226.849289,298.639099 224.922195,296.694611 222.691605,295.204498 
	C219.928314,293.358612 219.001678,291.362518 220.378403,288.908478 
	C223.165695,291.104889 225.625732,293.229828 228.275162,295.084229 
	C231.632462,297.434113 231.939896,299.099609 228.989685,300.721375 
z"/>
<path fill="#060606" opacity="1.000000" stroke="none" 
	d="
M279.000031,313.608948 
	C282.293518,313.608917 285.095062,313.608917 287.896576,313.608917 
	C287.890961,314.233948 287.885315,314.858978 287.879700,315.484009 
	C283.159729,315.484009 278.439789,315.484009 273.719818,315.484009 
	C273.645569,315.166809 273.571320,314.849579 273.497070,314.532379 
	C275.167389,314.224579 276.837738,313.916809 279.000031,313.608948 
z"/>
<path fill="#8AEAED" opacity="1.000000" stroke="none" 
	d="
M298.390625,285.144531 
	C298.117523,285.041168 298.077728,284.865997 297.994385,284.425476 
	C298.393311,284.251892 298.835754,284.343689 299.278168,284.435486 
	C299.060089,284.647919 298.842010,284.860352 298.390625,285.144531 
z"/>
<path fill="#73E5E9" opacity="1.000000" stroke="none" 
	d="
M266.995392,287.002869 
	C267.355194,286.783783 267.706726,286.550446 268.058258,286.317139 
	C268.129547,286.441925 268.200836,286.566772 268.272095,286.691589 
	C267.991394,286.778564 267.710663,286.865540 267.195801,286.958862 
	C266.961609,286.965240 266.987122,286.988647 266.995392,287.002869 
z"/>
<path fill="#8AEAED" opacity="1.000000" stroke="none" 
	d="
M294.815887,285.084045 
	C295.013245,285.021118 295.042084,285.444366 295.048065,285.655670 
	C294.908875,285.626953 294.763702,285.386963 294.815887,285.084045 
z"/>
<path fill="#5EE1E6" opacity="1.000000" stroke="none" 
	d="
M194.129822,349.138519 
	C194.003433,349.375885 193.796234,349.530243 193.589020,349.684601 
	C193.561508,349.476837 193.533981,349.269073 193.694672,348.977722 
	C193.882889,348.894135 194.049011,349.055542 194.129822,349.138519 
z"/>
</svg>